<svg width="31" height="29" viewBox="0 0 31 29" fill="none" xmlns="http://www.w3.org/2000/svg">
<path d="M15.5 0C6.944 0 0 6.496 0 14.5C0 22.504 6.944 29 15.5 29C24.056 29 31 22.504 31 14.5C31 6.496 24.056 0 15.5 0ZM15.5 4.35C18.073 4.35 20.15 6.293 20.15 8.7C20.15 11.107 18.073 13.05 15.5 13.05C12.927 13.05 10.85 11.107 10.85 8.7C10.85 6.293 12.927 4.35 15.5 4.35ZM15.5 24.94C11.625 24.94 8.1995 23.084 6.2 20.271C6.2465 17.3855 12.4 15.805 15.5 15.805C18.5845 15.805 24.7535 17.3855 24.8 20.271C22.8005 23.084 19.375 24.94 15.5 24.94Z" fill="#FA0379"/>
</svg>
